<svg width="24" height="24" viewBox="0 0 24 24" fill="none" xmlns="http://www.w3.org/2000/svg">
<path d="M0 0L16 0C20.4183 0 24 3.58172 24 8L24 24L8 24C3.58172 24 0 20.4183 0 16L0 0Z" fill="#EDEFF6"/>
<path d="M10.8919 14.6022V13.8066C10.8919 13.3646 10.9894 12.9613 11.1843 12.5967C11.3792 12.232 11.6143 11.9282 11.8894 11.6851C12.1646 11.442 12.4398 11.2099 12.715 10.989C12.9902 10.7569 13.2252 10.5028 13.4201 10.2265C13.6151 9.93923 13.7125 9.63536 13.7125 9.31492C13.7125 8.92818 13.552 8.60221 13.231 8.33702C12.9099 8.07182 12.5143 7.93923 12.0442 7.93923C11.4136 7.93923 10.8059 8.17127 10.2211 8.63536L9 7.19337C9.87142 6.39779 10.9492 6 12.2334 6C13.2539 6 14.1368 6.28729 14.8821 6.86188C15.6274 7.42541 16 8.1768 16 9.11602C16 9.62431 15.8968 10.0829 15.6904 10.4917C15.484 10.9006 15.2318 11.2376 14.9337 11.5028C14.6355 11.768 14.3374 12.0221 14.0393 12.2652C13.7527 12.4972 13.5061 12.7569 13.2998 13.0442C13.0934 13.3315 12.9902 13.6354 12.9902 13.9558V14.6022H10.8919ZM10.8747 18V16.0276H12.9902V18H10.8747Z" fill="#B0B3BC"/>
</svg>
